<svg width="100" height="100" viewBox="0 0 100 100" fill="none" xmlns="http://www.w3.org/2000/svg">
<path opacity="0.2" d="M50 100C77.6142 100 100 77.6143 100 50C100 22.3858 77.6142 0 50 0C22.3858 0 0 22.3858 0 50C0 77.6143 22.3858 100 50 100Z" fill="black"/>
<path d="M80.3632 42.0417H66.8913C65.6816 39.3991 63.7197 37.1714 61.2791 35.6339M80.3632 54.4053H66.8913C64.5422 59.5318 59.376 63.0908 53.3708 63.0908C47.3656 63.0908 42.195 59.5274 39.8503 54.4053H36.3311C33.5935 54.4053 31.3636 56.6352 31.3636 59.3728V63.678H19V59.3728C19 49.8176 26.7758 42.0417 36.3311 42.0417H39.8503C40.9745 39.5885 42.7438 37.4942 44.9415 35.9771" stroke="white" stroke-width="4" stroke-miterlimit="10"/>
<path d="M56.4794 28.3535V21.5094H68.7237C70.2559 21.5094 71.4923 20.2686 71.4923 18.7408V18.1006C71.4923 16.5684 70.2515 15.332 68.7237 15.332H56.4794H49.6352H37.3953C35.8631 15.332 34.6267 16.5728 34.6267 18.1006V18.7408C34.6267 20.2731 35.8675 21.5094 37.3953 21.5094H49.6396V28.3535" stroke="white" stroke-width="4" stroke-miterlimit="10"/>
<path d="M44.7781 36.0101V31.5018C44.7781 29.9078 45.8069 28.614 47.0786 28.614H59.0359C60.3076 28.614 61.3365 29.9078 61.3365 31.5018V36.0101H44.7781Z" stroke="white" stroke-width="4" stroke-miterlimit="10"/>
<path d="M89.0001 61.5983H85.216C82.5401 61.5983 80.3677 59.8718 80.3677 57.7391V37.6792C80.3677 35.5464 82.5357 33.8199 85.216 33.8199H88.678" stroke="white" stroke-width="4" stroke-miterlimit="10"/>
<path d="M31.0987 79.4461C31.0987 76.1609 25.1509 66.3672 25.1509 66.3672C25.1509 66.3672 19.2031 76.1653 19.2031 79.4461C19.2031 82.7313 21.8657 85.3939 25.1509 85.3939C28.4361 85.3939 31.0987 82.7313 31.0987 79.4461Z" stroke="white" stroke-width="4" stroke-miterlimit="10"/>
</svg>
