<svg width="100" height="100" viewBox="0 0 100 100" fill="none" xmlns="http://www.w3.org/2000/svg">
<path opacity="0.2" d="M50 100C77.6142 100 100 77.6143 100 50C100 22.3858 77.6142 0 50 0C22.3858 0 0 22.3858 0 50C0 77.6143 22.3858 100 50 100Z" fill="black"/>
<rect x="23" y="69" width="54" height="10" stroke="white" stroke-width="4"/>
<rect x="23" y="59" width="54" height="10" stroke="white" stroke-width="4"/>
<rect x="23" y="49" width="54" height="10" stroke="white" stroke-width="4"/>
<path d="M28 49L50 34.5L72 49" stroke="white" stroke-width="4"/>
<path d="M56 33C56 36.3137 53.3137 39 50 39C46.6863 39 44 36.3137 44 33C44 29.6863 46.6863 27 50 27V22" stroke="white" stroke-width="4"/>
<rect x="43" y="10" width="14" height="10" stroke="white" stroke-width="4"/>
</svg>
