<svg width="100" height="100" viewBox="0 0 100 100" fill="none" xmlns="http://www.w3.org/2000/svg">
<path opacity="0.2" d="M50 99.9999C77.6142 99.9999 100 77.6141 100 49.9999C100 22.3857 77.6142 0 50 0C22.3858 0 0 22.3857 0 49.9999C0 77.6141 22.3858 99.9999 50 99.9999Z" fill="black"/>
<path d="M29.4513 32.5307L18.645 37.5699V79.6751L39.5297 70.0447L60.4143 79.6751L81.299 70.0447V27.9395L60.4143 37.5699L49.6081 32.5307" stroke="white" stroke-width="4" stroke-miterlimit="10"/>
<path d="M39.5298 58.5665V70.0447" stroke="white" stroke-width="4" stroke-miterlimit="10"/>
<path d="M60.4144 37.5699V79.6752" stroke="white" stroke-width="4" stroke-miterlimit="10"/>
<path d="M50.448 27.9395C50.448 21.8925 45.5207 17.0212 39.5297 17.0212C33.4827 17.0212 28.6115 21.9485 28.6115 27.9395C28.6115 33.9305 39.5297 58.5666 39.5297 58.5666C39.5297 58.5666 50.448 33.9865 50.448 27.9395Z" stroke="white" stroke-width="4" stroke-miterlimit="10"/>
<path d="M39.5298 30.2352C40.7976 30.2352 41.8254 29.2073 41.8254 27.9395C41.8254 26.6716 40.7976 25.6438 39.5298 25.6438C38.2619 25.6438 37.2341 26.6716 37.2341 27.9395C37.2341 29.2073 38.2619 30.2352 39.5298 30.2352Z" stroke="white" stroke-width="4" stroke-miterlimit="10"/>
</svg>
