<svg width="100" height="100" viewBox="0 0 100 100" fill="none" xmlns="http://www.w3.org/2000/svg">
<path opacity="0.2" d="M50 100C77.6142 100 100 77.6142 100 50C100 22.3858 77.6142 0 50 0C22.3858 0 0 22.3858 0 50C0 77.6142 22.3858 100 50 100Z" fill="black"/>
<path d="M56.6629 23.6282H68.0291C70.3807 23.6282 72.3404 25.5319 72.3404 27.9395V63.9417C72.3404 66.2933 70.4367 68.253 68.0291 68.253H32.0269C29.6753 68.253 27.7156 66.3493 27.7156 63.9417V27.9395C27.7156 25.5879 29.6193 23.6282 32.0269 23.6282H43.3931" stroke="white" stroke-width="4" stroke-miterlimit="10"/>
<path d="M72.3404 33.0347H27.7156V48.2083H72.3404V33.0347Z" stroke="white" stroke-width="4" stroke-miterlimit="10"/>
<path d="M50.0001 30.2912C53.6799 30.2912 56.663 27.3081 56.663 23.6283C56.663 19.9484 53.6799 16.9653 50.0001 16.9653C46.3203 16.9653 43.3372 19.9484 43.3372 23.6283C43.3372 27.3081 46.3203 30.2912 50.0001 30.2912Z" stroke="white" stroke-width="4" stroke-miterlimit="10"/>
<path d="M34.3785 68.3091L18.645 79.6753" stroke="white" stroke-width="4" stroke-miterlimit="10"/>
<path d="M65.6216 68.3091L81.2991 79.6753" stroke="white" stroke-width="4" stroke-miterlimit="10"/>
<path d="M38.4659 59.9104C39.3936 59.9104 40.1456 59.1583 40.1456 58.2306C40.1456 57.3029 39.3936 56.5509 38.4659 56.5509C37.5382 56.5509 36.7861 57.3029 36.7861 58.2306C36.7861 59.1583 37.5382 59.9104 38.4659 59.9104Z" stroke="white" stroke-width="4" stroke-miterlimit="10"/>
<path d="M61.5342 59.9104C62.4619 59.9104 63.214 59.1583 63.214 58.2306C63.214 57.3029 62.4619 56.5509 61.5342 56.5509C60.6065 56.5509 59.8545 57.3029 59.8545 58.2306C59.8545 59.1583 60.6065 59.9104 61.5342 59.9104Z" stroke="white" stroke-width="4" stroke-miterlimit="10"/>
</svg>
