<svg width="100" height="100" viewBox="0 0 100 100" fill="none" xmlns="http://www.w3.org/2000/svg">
<path opacity="0.2" d="M50 100C77.6142 100 100 77.6143 100 50C100 22.3858 77.6142 0 50 0C22.3858 0 0 22.3858 0 50C0 77.6143 22.3858 100 50 100Z" fill="black"/>
<path d="M50.0686 5.50146L52.7986 10.8656L53.4476 12.147L54.9021 12.3533L61 13.2111L56.586 17.3863L55.5343 18.3798L55.7804 19.786L56.821 25.6823L51.3665 22.897L50.063 22.2346L48.7651 22.9024L43.3106 25.6877L44.3511 19.7914L44.5973 18.3852L43.5456 17.3917L39.1316 13.2165L45.2295 12.3587L46.684 12.1524L47.3329 10.8711L50.0686 5.50146Z" fill="white"/>
<path d="M31 89V52.4171L37.8567 58.0135L50.0023 27L62.1433 58.0135L69 52.4171V89" stroke="white" stroke-width="4" stroke-miterlimit="10"/>
<path d="M50 87C56.0751 87 61 82.0751 61 76C61 69.9249 56.0751 65 50 65C43.9249 65 39 69.9249 39 76C39 82.0751 43.9249 87 50 87Z" stroke="white" stroke-width="4" stroke-miterlimit="10"/>
<path d="M77 83V58L85.8869 64.6137L94 58" stroke="white" stroke-width="4" stroke-miterlimit="10"/>
<path d="M23 83V58L14.1131 64.6137L6 58" stroke="white" stroke-width="4" stroke-miterlimit="10"/>
</svg>
