<svg width="24" height="24" viewBox="0 0 24 24" fill="none" xmlns="http://www.w3.org/2000/svg">
<path d="M11.9999 2.68994L17.6599 8.34994C18.7792 9.46855 19.5417 10.894 19.8508 12.446C20.1599 13.998 20.0018 15.6068 19.3964 17.0689C18.7911 18.531 17.7657 19.7808 16.45 20.66C15.1343 21.5393 13.5874 22.0086 12.0049 22.0086C10.4224 22.0086 8.87549 21.5393 7.55978 20.66C6.24407 19.7808 5.2187 18.531 4.61335 17.0689C4.008 15.6068 3.84988 13.998 4.15899 12.446C4.46809 10.894 5.23054 9.46855 6.34989 8.34994L11.9999 2.68994Z" stroke="black" stroke-width="2" stroke-linecap="round" stroke-linejoin="round"/>
<path d="M11.9975 12L14.8275 14.9298C15.3872 15.5088 15.7684 16.2467 15.9229 17.0501C16.0775 17.8534 15.9984 18.6862 15.6958 19.443C15.3931 20.1999 14.8804 20.8468 14.2226 21.3019C13.5647 21.7571 12.7912 22 12 22C11.2088 22 10.4353 21.7571 9.77745 21.3019C9.11959 20.8468 8.60691 20.1999 8.30423 19.443C8.00156 18.6862 7.9225 17.8534 8.07705 17.0501C8.23161 16.2467 8.61283 15.5088 9.1725 14.9298L11.9975 12Z" stroke="black" stroke-width="2" stroke-linecap="round" stroke-linejoin="round"/>
</svg>
