<svg width="200" height="40" viewBox="0 0 200 40" fill="none" xmlns="http://www.w3.org/2000/svg">
<g clip-path="url(#clip0_1167_1291)">
<path d="M52.6582 14.1303L51.5691 10.1738L51.5051 9.59006H51.441L51.3769 10.1738L50.2238 14.1303H48.6223L50.7363 7.19022L48.8786 0.898743H50.4801L51.441 4.66066V5.04982H51.5051V4.66066L52.466 0.898743H54.0675L52.2097 7.19022L54.3237 14.1303H52.6582Z" fill="#323232"/>
<path d="M62.7798 14.1303V7.44966L62.8438 6.54161L61.1782 11.6007V14.1303H59.7048V0.898743H61.1782V7.19022L61.1142 8.16313L62.7798 3.03914V0.898743H64.1891V14.1303H62.7798Z" fill="#323232"/>
<path d="M73.0296 14.1303L71.5562 3.42831L71.6843 5.17954V14.1303H70.2109V0.898743H72.453L73.5421 9.39548H73.6061L74.6952 0.898743H77.0014V14.1303H75.528V5.17954L75.6561 3.42831H75.592L74.1186 14.1303H73.0296Z" fill="#323232"/>
<path d="M82.9589 14.1303V0.898743H84.4323V6.54161L86.0979 0.898743H87.6994L85.7136 7.19022L87.8916 14.1303H86.3542L84.4323 7.77397V14.1303H82.9589Z" fill="#323232"/>
<path d="M96.3477 14.1303V7.44966L96.4758 6.54161L94.8102 11.6007V14.1303H93.3368V0.898743H94.8102V7.19022L94.6821 8.16313L96.3477 3.03914V0.898743H97.8211V14.1303H96.3477Z" fill="#323232"/>
<path d="M52.466 38.8422L50.4801 24.4431H50.416L50.6082 26.7781V38.8422H48.6223V21.0704H51.6332L53.1706 32.4858H53.2347L54.7081 21.0704H57.719V38.8422H55.7331V26.7781L55.9253 24.4431H55.8612L53.8753 38.8422H52.466Z" fill="#323232"/>
<path d="M66.3031 38.0638C65.5985 37.1558 65.6625 35.8586 65.6625 34.9505V24.962C65.6625 24.054 65.5985 22.7568 66.3031 21.8487C66.5594 21.5244 67.264 20.8109 68.6093 20.8109C69.9546 20.8109 70.6593 21.5244 70.9155 21.8487C71.6202 22.7568 71.5561 24.054 71.5561 24.962V34.8857C71.5561 35.7937 71.6202 37.0909 70.9155 37.999C70.6593 38.3233 69.9546 39.0368 68.6093 39.0368C67.264 39.0368 66.5594 38.3881 66.3031 38.0638ZM67.5844 35.3397C67.5844 36.2478 67.6484 36.5072 67.7125 36.7018C67.8406 36.9612 68.1609 37.1558 68.6093 37.1558C69.0578 37.1558 69.3781 36.8964 69.5062 36.7018C69.6343 36.5072 69.6343 36.2478 69.6343 35.3397V24.508C69.6343 23.5999 69.5702 23.3405 69.5062 23.1459C69.3781 22.8865 69.0578 22.6919 68.6093 22.6919C68.1609 22.6919 67.8406 22.9513 67.7125 23.1459C67.5843 23.3405 67.5844 23.5999 67.5844 24.508V35.3397Z" fill="#323232"/>
<path d="M83.5355 38.8422V22.9513H82.2543V27.1673C82.2543 28.7888 82.0621 32.421 81.934 33.3939C81.8058 34.3019 81.6777 35.7289 81.2293 36.8315C80.5246 38.7125 79.6918 38.8422 79.0512 38.8422H78.795V36.9612C79.1153 36.7018 79.3715 36.4423 79.5637 36.118C79.884 35.4694 80.0762 34.4317 80.2684 31.967C80.3965 30.2157 80.4606 28.1402 80.4606 26.4538V21.0704H85.3933V38.8422H83.5355Z" fill="#323232"/>
<path d="M115.31 38.8422L114.99 35.5992H112.747L112.427 38.8422H110.441L112.619 21.0704H115.118L117.296 38.8422H115.31ZM114.797 33.6533L113.9 24.8972H113.836L112.94 33.7182H114.797V33.6533Z" fill="#323232"/>
<path d="M126.584 30.1509V38.8422H124.599V21.0704H126.584V28.2699H128.698V21.0704H130.62V38.8422H128.698V30.1509H126.584Z" fill="#323232"/>
<path d="M142.728 38.8422V29.8266L142.856 28.5942L140.614 35.4046V38.8422H138.628V21.0704H140.614V29.5023L140.486 30.7995L142.728 23.9242V21.0704H144.65V38.8422H142.728Z" fill="#323232"/>
<path d="M154.643 30.1509V38.8422H152.657V21.0704H154.643V28.2699H156.757V21.0704H158.679V38.8422H156.757V30.1509H154.643Z" fill="#323232"/>
<path d="M167.263 38.0639C166.559 37.1558 166.623 35.8586 166.623 34.9505V24.962C166.623 24.054 166.559 22.7568 167.263 21.8487C167.519 21.5244 168.224 20.8109 169.569 20.8109C170.979 20.8109 171.619 21.5244 171.876 21.8487C172.58 22.7568 172.516 24.054 172.516 24.962V34.8857C172.516 35.7937 172.58 37.0909 171.876 37.999C171.619 38.3233 170.915 39.0368 169.569 39.0368C168.224 39.1016 167.583 38.3882 167.263 38.0639ZM168.608 35.3397C168.608 36.2478 168.673 36.5072 168.737 36.7018C168.865 36.9612 169.185 37.1558 169.633 37.1558C170.082 37.1558 170.402 36.8964 170.53 36.7018C170.658 36.5072 170.658 36.2478 170.658 35.3397V24.508C170.658 23.5999 170.594 23.3405 170.53 23.1459C170.402 22.8865 170.082 22.6919 169.633 22.6919C169.185 22.6919 168.865 22.9513 168.737 23.1459C168.608 23.3405 168.608 23.5999 168.608 24.508V35.3397Z" fill="#323232"/>
<path d="M180.524 21.0704H183.535C184.752 21.0704 185.457 21.5893 185.777 22.0433C186.418 22.8216 186.482 23.9242 186.482 24.8972V26.6484C186.482 27.297 186.482 28.0105 186.161 28.5942C185.841 29.178 185.393 29.4374 184.88 29.5023V29.5671C185.713 29.8266 186.161 30.4103 186.354 30.8643C186.61 31.4481 186.61 32.0967 186.61 32.8102V35.3397C186.61 36.118 186.61 36.9612 186.161 37.6747C185.841 38.2584 185.2 38.8422 184.047 38.8422H180.588V21.0704H180.524ZM183.279 28.5293C183.535 28.5293 183.983 28.5293 184.24 28.205C184.496 27.8807 184.56 27.3619 184.56 26.7781V24.6377C184.56 24.2486 184.56 23.7297 184.24 23.3405C183.983 23.0811 183.599 22.9513 183.086 22.9513H182.51V28.5293H183.279ZM183.343 36.9612C183.599 36.9612 184.111 36.9612 184.368 36.5072C184.496 36.2478 184.624 35.9235 184.624 35.2749V32.6804C184.624 32.0318 184.624 31.3832 184.368 30.9941C184.047 30.4103 183.407 30.4103 183.086 30.4103H182.51V37.0261H183.343V36.9612Z" fill="#323232"/>
<path d="M194.745 38.0639C194.041 37.1558 194.105 35.8586 194.105 34.9505V24.962C194.105 24.054 194.041 22.7568 194.745 21.8487C195.002 21.5244 195.706 20.8109 197.052 20.8109C198.461 20.8109 199.102 21.5244 199.358 21.8487C200.062 22.7568 199.998 24.054 199.998 24.962V34.8857C199.998 35.7937 200.062 37.0909 199.358 37.999C199.102 38.3233 198.397 39.0368 197.052 39.0368C195.706 39.1016 195.066 38.3882 194.745 38.0639ZM196.091 35.3397C196.091 36.2478 196.155 36.5072 196.219 36.7018C196.347 36.9612 196.667 37.1558 197.116 37.1558C197.564 37.1558 197.884 36.8964 198.013 36.7018C198.141 36.5072 198.141 36.2478 198.141 35.3397V24.508C198.141 23.5999 198.077 23.3405 198.013 23.1459C197.884 22.8865 197.564 22.6919 197.116 22.6919C196.667 22.6919 196.347 22.9513 196.219 23.1459C196.091 23.3405 196.091 23.5999 196.091 24.508V35.3397Z" fill="#323232"/>
<path d="M101.024 29.4374L103.715 21.0055H101.601L99.2945 28.5942V21.0055H97.3086V28.5942L95.0024 21.0055H92.8884L95.5789 29.4374L92.5681 38.8422H94.6821L97.3086 30.2157V38.8422H99.2945V30.2157L101.921 38.8422H104.035L101.024 29.4374Z" fill="#323232"/>
<path d="M37.5397 1.02844H0V39.0367H37.5397V1.02844Z" fill="#BA0C2F"/>
</g>
<defs>
<clipPath id="clip0_1167_1291">
<rect width="200" height="40" fill="white"/>
</clipPath>
</defs>
</svg>
