<svg width="176" height="40" viewBox="0 0 176 40" fill="none" xmlns="http://www.w3.org/2000/svg">
  <path d="M44.3815 15.0699L43.4636 11.7598L43.4096 11.2714H43.3556L43.3016 11.7598L42.3298 15.0699H40.98L42.7617 9.26362L41.1959 4H42.5458L43.3556 7.14732V7.4729H43.4096V7.14732L44.2195 4H45.5693L44.0035 9.26362L45.7853 15.0699H44.3815Z" fill="#323232" />
  <path d="M52.9122 15.0699V9.48068L52.9662 8.72098L51.5624 12.9536V15.0699H50.3206V4H51.5624V9.26362L51.5084 10.0776L52.9122 5.79072V4H54.1V15.0699H52.9122Z" fill="#323232" />
  <path d="M61.551 15.0699L60.3092 6.1163L60.4172 7.58143V15.0699H59.1754V4H61.0651L61.983 11.1086H62.037L62.9548 4H64.8985V15.0699H63.6567V7.58143L63.7647 6.1163H63.7107L62.4689 15.0699H61.551Z" fill="#323232" />
  <path d="M69.9197 15.0699V4H71.1615V8.72098L72.5653 4H73.9151L72.2414 9.26362L74.0771 15.0699H72.7813L71.1615 9.752V15.0699H69.9197Z" fill="#323232" />
  <path d="M81.2041 15.0699V9.48068L81.3121 8.72098L79.9083 12.9536V15.0699H78.6665V4H79.9083V9.26362L79.8003 10.0776L81.2041 5.79072V4H82.4459V15.0699H81.2041Z" fill="#323232" />
  <path d="M44.2195 35.7445L42.5458 23.6979H42.4918L42.6537 25.6514V35.7445H40.98V20.8761H43.5176L44.8134 30.4266H44.8674L46.1092 20.8761H48.6469V35.7445H46.9731V25.6514L47.1351 23.6979H47.0811L45.4073 35.7445H44.2195Z" fill="#323232" />
  <path d="M55.8818 35.0933C55.2879 34.3336 55.3419 33.2484 55.3419 32.4887V24.132C55.3419 23.3723 55.2879 22.287 55.8818 21.5273C56.0978 21.256 56.6917 20.6591 57.8255 20.6591C58.9594 20.6591 59.5533 21.256 59.7692 21.5273C60.3632 22.287 60.3092 23.3723 60.3092 24.132V32.4344C60.3092 33.1941 60.3632 34.2794 59.7692 35.0391C59.5533 35.3104 58.9594 35.9073 57.8255 35.9073C56.6917 35.9073 56.0978 35.3647 55.8818 35.0933ZM56.9616 32.8142C56.9616 33.5739 57.0156 33.791 57.0696 33.9538C57.1776 34.1708 57.4476 34.3336 57.8255 34.3336C58.2035 34.3336 58.4734 34.1166 58.5814 33.9538C58.6894 33.791 58.6894 33.5739 58.6894 32.8142V23.7521C58.6894 22.9924 58.6354 22.7754 58.5814 22.6126C58.4734 22.3955 58.2035 22.2327 57.8255 22.2327C57.4476 22.2327 57.1776 22.4498 57.0696 22.6126C56.9616 22.7754 56.9616 22.9924 56.9616 23.7521V32.8142Z" fill="#323232" />
  <path d="M70.4057 35.7445V22.4498H69.3258V25.977C69.3258 27.3336 69.1638 30.3724 69.0559 31.1863C68.9479 31.946 68.8399 33.1398 68.4619 34.0623C67.868 35.636 67.1661 35.7445 66.6262 35.7445H66.4102V34.1709C66.6802 33.9538 66.8962 33.7367 67.0581 33.4654C67.3281 32.9228 67.4901 32.0546 67.6521 29.9925C67.76 28.5274 67.814 26.7909 67.814 25.3801V20.8761H71.9714V35.7445H70.4057Z" fill="#323232" />
  <path d="M97.1858 35.7445L96.9159 33.0313H95.0261L94.7562 35.7445H93.0824L94.9182 20.8761H97.0239L98.8596 35.7445H97.1858ZM96.7539 31.4034L95.998 24.0777H95.944L95.1881 31.4576H96.7539V31.4034Z" fill="#323232" />
  <path d="M106.688 28.4731V35.7445H105.015V20.8761H106.688V26.8995H108.47V20.8761H110.09V35.7445H108.47V28.4731H106.688Z" fill="#323232" />
  <path d="M120.294 35.7445V28.2018L120.402 27.1708L118.513 32.8685V35.7445H116.839V20.8761H118.513V27.9305L118.405 29.0158L120.294 23.2638V20.8761H121.914V35.7445H120.294Z" fill="#323232" />
  <path d="M130.337 28.4731V35.7445H128.663V20.8761H130.337V26.8995H132.119V20.8761H133.739V35.7445H132.119V28.4731H130.337Z" fill="#323232" />
  <path d="M140.973 35.0933C140.379 34.3336 140.433 33.2484 140.433 32.4887V24.132C140.433 23.3723 140.379 22.287 140.973 21.5273C141.189 21.256 141.783 20.6591 142.917 20.6591C144.105 20.6591 144.645 21.256 144.861 21.5273C145.455 22.287 145.401 23.3723 145.401 24.132V32.4344C145.401 33.1941 145.455 34.2794 144.861 35.0391C144.645 35.3104 144.051 35.9073 142.917 35.9073C141.783 35.9616 141.243 35.3647 140.973 35.0933ZM142.107 32.8142C142.107 33.5739 142.161 33.791 142.215 33.9538C142.323 34.1708 142.593 34.3336 142.971 34.3336C143.349 34.3336 143.619 34.1166 143.727 33.9538C143.835 33.791 143.835 33.5739 143.835 32.8142V23.7521C143.835 22.9924 143.781 22.7754 143.727 22.6126C143.619 22.3955 143.349 22.2327 142.971 22.2327C142.593 22.2327 142.323 22.4498 142.215 22.6126C142.107 22.7754 142.107 22.9924 142.107 23.7521V32.8142Z" fill="#323232" />
  <path d="M152.15 20.8761H154.688C155.713 20.8761 156.307 21.3103 156.577 21.6901C157.117 22.3413 157.171 23.2638 157.171 24.0777V25.5429C157.171 26.0855 157.171 26.6824 156.901 27.1708C156.631 27.6592 156.253 27.8762 155.821 27.9305V27.9847C156.523 28.2018 156.901 28.6902 157.063 29.07C157.279 29.5584 157.279 30.101 157.279 30.6979V32.8142C157.279 33.4654 157.279 34.1709 156.901 34.7678C156.631 35.2561 156.091 35.7445 155.119 35.7445H152.204V20.8761H152.15ZM154.472 27.1165C154.688 27.1165 155.065 27.1165 155.281 26.8452C155.497 26.5739 155.551 26.1398 155.551 25.6514V23.8607C155.551 23.5351 155.551 23.101 155.281 22.7754C155.065 22.5583 154.742 22.4498 154.31 22.4498H153.824V27.1165H154.472ZM154.526 34.1709C154.742 34.1709 155.173 34.1709 155.389 33.791C155.497 33.5739 155.605 33.3026 155.605 32.76V30.5894C155.605 30.0468 155.605 29.5041 155.389 29.1786C155.119 28.6902 154.58 28.6902 154.31 28.6902H153.824V34.2251H154.526V34.1709Z" fill="#323232" />
  <path d="M164.136 35.0933C163.542 34.3336 163.596 33.2484 163.596 32.4887V24.132C163.596 23.3723 163.542 22.287 164.136 21.5273C164.352 21.256 164.946 20.6591 166.08 20.6591C167.268 20.6591 167.808 21.256 168.024 21.5273C168.617 22.287 168.563 23.3723 168.563 24.132V32.4344C168.563 33.1941 168.617 34.2794 168.024 35.0391C167.808 35.3104 167.214 35.9073 166.08 35.9073C164.946 35.9616 164.406 35.3647 164.136 35.0933ZM165.27 32.8142C165.27 33.5739 165.324 33.791 165.378 33.9538C165.486 34.1708 165.756 34.3336 166.134 34.3336C166.512 34.3336 166.782 34.1166 166.89 33.9538C166.998 33.791 166.998 33.5739 166.998 32.8142V23.7521C166.998 22.9924 166.944 22.7754 166.89 22.6126C166.782 22.3955 166.512 22.2327 166.134 22.2327C165.756 22.2327 165.486 22.4498 165.378 22.6126C165.27 22.7754 165.27 22.9924 165.27 23.7521V32.8142Z" fill="#323232" />
  <path d="M85.1455 27.8762L87.4132 20.8219H85.6314L83.6877 27.1708V20.8219H82.014V27.1708L80.0703 20.8219H78.2885L80.5562 27.8762L78.0186 35.7445H79.8003L82.014 28.5274V35.7445H83.6877V28.5274L85.9014 35.7445H87.6831L85.1455 27.8762Z" fill="#323232" />
  <path d="M31.6394 4.10852H0V35.9073H31.6394V4.10852Z" fill="#BA0C2F" />
</svg>
