<svg width="200" height="151" viewBox="0 0 200 151" fill="none" xmlns="http://www.w3.org/2000/svg">
<g clip-path="url(#clip0_215_54)">
<path d="M37.8818 9.37259H0.203613V47.2705H37.8818V9.37259Z" fill="#BA0C2F"/>
<path d="M69.2464 7.74257C73.9307 6.7238 78.6151 6.11255 83.2994 6.11255C89.2057 6.11255 94.9083 6.92756 100.407 8.76133C121.589 14.4664 137.271 29.9516 145.01 50.3268C146.843 55.6243 147.861 61.7369 148.88 67.2382H150.713C149.694 61.7369 148.676 55.4206 146.639 49.9193C138.9 28.9328 122.811 12.8364 101.018 7.13131C95.3157 5.29754 89.2057 4.27878 83.2994 4.27878C78.4114 4.27878 73.5234 4.89004 68.8391 5.9088C61.3034 7.13131 54.1751 9.57634 47.4542 13.4476L47.2505 13.6514V15.0776C47.2505 15.2814 47.4542 15.2814 47.6578 15.2814C54.5825 11.4101 61.7108 8.76133 69.2464 7.74257Z" fill="white"/>
<path d="M79.6333 2.0375C85.336 2.0375 91.2423 2.85251 96.7413 4.07503C104.684 6.11255 112.016 8.76133 118.737 12.6326C125.458 16.7077 131.772 22.0052 137.474 29.3403C145.621 39.7317 151.12 53.7906 152.546 67.0344H154.175C152.749 53.3831 147.047 38.9166 138.696 28.3215C132.79 20.7827 126.476 15.2814 119.348 11.2064C112.424 7.13131 104.888 4.48253 96.9449 2.44501C91.2423 1.01874 85.336 0.203735 79.226 0.203735C70.8757 0.203735 62.5254 1.63 54.7861 4.89004C52.1384 5.9088 49.6944 7.13131 47.2504 8.35382L47.0468 8.55757V9.98384C47.0468 10.1876 47.2504 10.1876 47.4541 10.1876C50.1017 8.76133 52.7494 7.53881 55.3971 6.3163C63.5437 3.46377 71.4867 2.0375 79.6333 2.0375Z" fill="white"/>
<path d="M79.0225 10.5951C93.2791 10.5951 107.739 15.2814 120.163 24.8577C128.31 31.1741 134.216 38.5091 138.086 46.6592C141.141 52.7718 142.974 60.3106 143.585 67.2382H145.214C144.603 59.9031 142.566 52.3643 139.511 45.8442C135.438 37.4904 129.532 29.9515 121.181 23.4315C108.554 13.6514 93.6864 8.76132 79.0225 8.76132C69.0428 8.76132 59.0632 11.0026 50.3056 15.4851C49.4909 15.8926 48.4726 16.5039 47.6579 16.9114L47.4542 17.1152V18.5414C47.4542 18.7452 47.6579 18.7452 47.8616 18.7452C48.8799 18.3377 50.1019 17.7264 51.1202 17.1152C59.6742 12.8364 69.2465 10.5951 79.0225 10.5951Z" fill="white"/>
<path d="M20.1629 98.8198C23.8289 106.97 29.1242 114.101 36.6598 120.01L37.6782 118.584C31.1609 113.49 26.0692 106.766 22.8105 99.2273C19.5519 91.6885 17.9226 83.7422 17.9226 75.3883C17.9226 74.1658 17.9226 73.1471 17.9226 71.9245C17.9226 71.7208 17.7189 71.7208 17.7189 71.517H16.4969C16.2932 71.517 16.2932 71.7208 16.2932 71.9245C16.2932 73.1471 16.0896 74.3696 16.0896 75.5921C16.0896 76.2033 16.0896 76.6108 16.0896 77.2221C15.8859 75.7958 15.6822 74.3696 15.6822 72.9433C15.6822 71.7208 15.4786 70.4983 15.4786 69.072C15.4786 64.7932 15.8859 61.5332 16.9042 57.2544C16.9042 57.0506 16.9042 57.0506 16.7006 57.0506H15.2749C15.0712 57.0506 15.0712 57.0506 15.0712 57.2544C14.0529 61.5332 13.8492 64.997 13.8492 69.2758C13.8492 70.4983 13.8492 71.9245 14.0529 73.1471C14.6639 81.9084 16.4969 90.8735 20.1629 98.8198Z" fill="white"/>
<path d="M21.3849 88.4284C20.3666 84.3534 19.9592 80.2783 19.9592 76.2033C19.9592 69.4795 21.5886 63.9782 23.6252 57.0506C23.6252 56.8468 23.6252 56.8468 23.4216 56.8468H21.9959C21.7922 56.8468 21.7922 56.8468 21.7922 57.0506C19.9592 63.9782 18.5336 69.6832 18.5336 76.407C18.5336 80.6858 18.9409 84.7609 19.9592 89.0397L21.3849 88.4284Z" fill="white"/>
<path d="M18.5336 107.581C24.4399 118.176 33.4012 127.141 44.8065 133.865C55.8044 140.182 67.8207 143.442 79.6334 143.442C97.556 143.442 115.275 136.31 128.513 122.455C130.143 120.214 132.179 117.973 134.012 115.528C135.845 113.082 137.678 110.434 138.697 107.581C139.307 106.155 139.511 105.747 139.918 104.321C139.918 104.117 139.919 104.117 139.715 104.117H138.289C138.086 104.117 138.086 104.117 138.086 104.321C137.678 105.544 137.475 105.951 137.067 106.97C136.049 109.619 134.42 112.267 132.587 114.509C130.754 116.954 128.921 119.195 127.088 121.436C114.46 134.476 97.3523 141.608 79.837 141.608C68.2281 141.608 56.6191 138.552 45.8248 132.235C34.6232 125.715 25.8655 116.954 20.1629 106.562C14.2566 96.3748 11.2016 84.5572 11.2016 72.1283C11.2016 67.8495 11.6089 63.5707 12.4236 59.0882C12.6273 58.0694 12.6273 57.8656 13.0346 56.8469C13.0346 56.6431 13.0346 56.6431 12.8309 56.6431H11.2016C10.9979 56.6431 10.9979 56.6431 10.9979 56.8469C10.7943 57.8656 10.7943 57.8656 10.5906 58.8844C9.77593 63.367 9.57227 67.8495 9.57227 72.1283C9.57227 84.9647 12.6273 96.9861 18.5336 107.581Z" fill="white"/>
<path d="M148.88 103.506H147.454C147.454 103.506 147.25 103.506 147.25 103.71C141.344 118.584 131.161 130.401 116.497 138.959C107.128 144.46 96.7413 147.72 86.3543 148.739C95.112 147.313 103.87 145.072 112.627 140.589C120.57 135.903 127.495 130.198 134.216 123.474C139.511 116.954 143.381 111.452 146.639 103.914C146.639 103.71 146.639 103.71 146.436 103.71H145.01C144.806 103.71 144.806 103.71 144.806 103.914C141.548 110.841 137.882 116.139 132.79 122.251C126.069 128.975 119.348 134.68 111.609 139.163C100.407 144.868 89.2057 147.109 78.004 148.128C63.9511 148.128 50.5091 143.442 39.1038 135.699C27.6985 127.753 18.3299 116.75 12.4236 104.117C9.77593 98.2086 7.12827 92.096 5.29528 85.7797C5.09161 84.9647 4.88794 84.1497 4.88794 83.1309C4.48061 81.0934 4.27695 79.0559 3.86961 77.0183L2.03662 77.4258C2.24029 80.4821 2.85128 83.5384 3.66595 86.3909C5.29528 95.1523 7.5356 103.302 11.2016 110.637C15.0712 118.991 20.5702 126.326 28.3095 133.05C42.3625 145.072 60.0814 150.98 78.004 150.98C91.6496 150.98 105.295 147.517 117.515 140.385C132.587 131.624 143.177 119.399 149.287 103.71C149.083 103.71 148.88 103.506 148.88 103.506ZM29.3279 131.624C21.7922 125.104 16.4969 117.973 12.6273 109.822C11.6089 107.377 10.5906 104.932 9.57226 102.487C9.97959 103.302 10.3869 104.117 10.5906 104.932C16.4969 117.769 26.2729 128.975 37.8818 136.921C43.5845 140.793 49.8981 144.053 56.6191 146.294C47.0468 143.442 37.4745 138.552 29.3279 131.624Z" fill="white"/>
<path d="M51.5275 69.6832L50.3055 65.8119V65.2007L50.1019 65.8119L49.0836 69.6832H47.4542L49.4909 62.7557L47.6579 56.4393H49.2872L50.3055 60.3106V60.7181V60.3106L51.3239 56.4393H52.9532L51.1202 62.7557L53.1569 69.6832H51.5275Z" fill="white"/>
<path d="M61.7107 69.6832V62.9594V62.1444L60.0814 67.2382V69.6832H58.6558V56.4393H60.0814V62.7557L59.8778 63.7744L61.7107 58.6806V56.4393H63.1364V69.6832H61.7107Z" fill="white"/>
<path d="M72.0978 69.6832L70.4685 59.0881L70.6721 60.7181V69.6832H69.2465V56.4393H71.4868L72.5051 64.9969L73.7271 56.4393H75.9675V69.6832H74.5418V60.7181V59.0881L73.1161 69.6832H72.0978Z" fill="white"/>
<path d="M82.0774 69.6832V56.4393H83.5031V62.1444L85.1324 56.4393H86.7617L84.7251 62.7557L86.9654 69.6832H85.3361L83.5031 63.3669V69.6832H82.0774Z" fill="white"/>
<path d="M95.5193 69.6832V62.9594V62.1444L93.89 67.2382V69.6832H92.4644V56.4393H93.89V62.7557V63.7744L95.5193 58.6806V56.4393H96.945V69.6832H95.5193Z" fill="white"/>
<path d="M51.3239 94.3373L49.2872 79.8709L49.4909 82.3159V94.3373H47.4542V76.6108H50.5092L51.9349 88.0209H52.1385L53.5642 76.6108H56.6192V94.3373H54.5825V82.3159L54.7862 79.8709L52.7495 94.3373H51.3239Z" fill="white"/>
<path d="M65.1731 93.5223C64.3584 92.5035 64.5621 91.281 64.5621 90.466V80.4821C64.5621 79.6671 64.5621 78.2409 65.1731 77.4259C65.3767 77.0184 66.1914 76.4071 67.617 76.4071C69.0427 76.4071 69.6537 77.0184 70.061 77.4259C70.8757 78.4446 70.672 79.6671 70.672 80.4821V90.466C70.672 91.281 70.672 92.7073 70.061 93.5223C69.8574 93.9298 69.0427 94.541 67.617 94.541C66.1914 94.541 65.5804 93.9298 65.1731 93.5223ZM66.5987 90.8735C66.5987 91.6885 66.5987 92.096 66.8024 92.2998C67.006 92.5035 67.2097 92.7073 67.617 92.7073C68.0244 92.7073 68.4317 92.5035 68.4317 92.2998C68.4317 92.096 68.6354 91.8923 68.6354 90.8735V80.0746C68.6354 79.2596 68.6354 78.8521 68.4317 78.6484C68.228 78.4446 68.0244 78.2409 67.617 78.2409C67.2097 78.2409 66.8024 78.4446 66.8024 78.6484C66.8024 78.8521 66.5987 79.0559 66.5987 80.0746V90.8735Z" fill="white"/>
<path d="M82.4848 94.3372V78.4446H81.2628V82.7234C81.2628 84.3534 81.0591 88.0209 81.0591 88.8359C80.8555 89.6509 80.8555 91.0772 80.4481 92.2997C79.8372 94.1335 78.8188 94.3372 78.2078 94.3372H78.0042V92.5035C78.4115 92.2997 78.6152 92.096 78.8188 91.6885C79.2262 91.0772 79.4298 90.0585 79.6335 87.6134C79.8371 85.7797 79.8372 83.7421 79.8372 82.1121V76.8146H84.7251V94.541H82.4848V94.3372Z" fill="white"/>
<path d="M114.664 94.3373L114.257 91.0772H112.016L111.609 94.3373H109.572L111.813 76.6108H114.257L116.497 94.3373H114.664ZM114.053 89.2435L113.238 80.4821L112.424 89.2435H114.053Z" fill="white"/>
<path d="M125.866 85.5759V94.3373H124.033V76.6108H125.866V83.7421H128.106V76.6108H129.939V94.3373H128.106V85.5759H125.866Z" fill="white"/>
<path d="M142.159 94.3373V85.3722L142.363 84.1497L140.122 90.8735V94.3373H138.086V76.6108H140.122V84.9647L139.919 86.1872L142.159 79.4633V76.6108H144.196V94.3373H142.159Z" fill="white"/>
<path d="M154.175 85.5759V94.3373H152.138V76.6108H154.175V83.7421H156.415V76.6108H158.248V94.3373H156.415V85.5759H154.175Z" fill="white"/>
<path d="M167.006 93.5223C166.191 92.5035 166.395 91.281 166.395 90.466V80.4821C166.395 79.6671 166.395 78.2409 167.006 77.4259C167.21 77.0184 168.024 76.4071 169.45 76.4071C170.876 76.4071 171.487 77.0184 171.894 77.4259C172.709 78.4446 172.505 79.6671 172.505 80.4821V90.466C172.505 91.281 172.505 92.7073 171.894 93.5223C171.69 93.9298 170.876 94.541 169.45 94.541C167.821 94.541 167.21 93.9298 167.006 93.5223ZM168.228 90.8735C168.228 91.6885 168.228 92.096 168.432 92.2998C168.635 92.5035 168.839 92.7073 169.246 92.7073C169.654 92.7073 170.061 92.5035 170.061 92.2998C170.061 92.096 170.265 91.8923 170.265 90.8735V80.0746C170.265 79.2596 170.265 78.8521 170.061 78.6484C169.857 78.4446 169.654 78.2409 169.246 78.2409C168.839 78.2409 168.432 78.4446 168.432 78.6484C168.432 78.8521 168.228 79.0559 168.228 80.0746V90.8735Z" fill="white"/>
<path d="M180.244 76.6108H183.299C184.521 76.6108 185.132 77.2221 185.54 77.6296C186.151 78.4446 186.151 79.4633 186.151 80.4821V82.3159C186.151 82.9271 186.151 83.7421 185.743 84.1496C185.54 84.7609 184.929 84.9647 184.521 84.9647C185.336 85.1684 185.743 85.7797 185.947 86.1872C186.151 86.7984 186.151 87.4097 186.151 88.0209V90.466C186.151 91.281 186.151 92.096 185.743 92.7072C185.336 93.3185 184.725 93.9298 183.707 93.9298H180.244V76.6108ZM183.096 83.9459C183.299 83.9459 183.707 83.9459 184.114 83.5384C184.318 83.3346 184.318 82.7234 184.318 82.1121V80.0746C184.318 79.6671 184.318 79.0558 183.91 78.8521C183.707 78.6483 183.299 78.4446 182.688 78.4446H182.077V83.9459H183.096ZM183.096 92.2997C183.299 92.2997 183.91 92.2997 184.114 91.8922C184.318 91.6885 184.318 91.281 184.318 90.6697V88.0209C184.318 87.4097 184.318 86.7984 184.114 86.3909C183.707 85.7797 183.096 85.7797 182.892 85.7797H182.281V92.2997H183.096Z" fill="white"/>
<path d="M194.705 93.5223C193.89 92.5035 194.094 91.281 194.094 90.466V80.4821C194.094 79.6671 194.094 78.2409 194.705 77.4259C194.908 77.0184 195.723 76.4071 197.149 76.4071C198.574 76.4071 199.185 77.0184 199.593 77.4259C200.407 78.4446 200.204 79.6671 200.204 80.4821V90.466C200.204 91.281 200.204 92.7073 199.593 93.5223C199.389 93.9298 198.574 94.541 197.149 94.541C195.519 94.541 194.908 93.9298 194.705 93.5223ZM195.927 90.8735C195.927 91.6885 195.927 92.096 196.13 92.2998C196.334 92.5035 196.538 92.7073 196.945 92.7073C197.352 92.7073 197.76 92.5035 197.76 92.2998C197.76 92.096 197.963 91.8923 197.963 90.8735V80.0746C197.963 79.2596 197.963 78.8521 197.76 78.6484C197.556 78.4446 197.352 78.2409 196.945 78.2409C196.538 78.2409 196.13 78.4446 196.13 78.6484C196.13 78.8521 195.927 79.0559 195.927 80.0746V90.8735Z" fill="white"/>
<path d="M100.204 84.9647L102.851 76.6108H100.815L98.5743 84.1497V76.6108H98.3706H96.5376V84.1497L94.0937 76.6108H92.057L94.7046 84.9647L91.6497 94.3373H93.89L96.5376 85.7797V94.3373H98.3706H98.5743V85.7797L101.018 94.3373H103.259L100.204 84.9647Z" fill="white"/>
</g>
<defs>
<clipPath id="clip0_215_54">
<rect width="200" height="150.98" fill="white"/>
</clipPath>
</defs>
</svg>
