<svg width="200" height="144" viewBox="0 0 200 144" fill="none" xmlns="http://www.w3.org/2000/svg">
<g clip-path="url(#clip0_1891_734)">
<path fill-rule="evenodd" clip-rule="evenodd" d="M88.0001 31.8571V27H92.0001V31.8571H88.0001ZM104.072 27H96.9287V31H104.072V27ZM92.0001 44V39.1429H88.0001V44H92.0001ZM134 44H138V39.1429H134V44ZM134 27V31.8571H138V27H134ZM109.429 27V31H116.572V27H109.429ZM121.929 27V31H129.072V27H121.929ZM129.072 44V40H121.929V44H129.072ZM116.572 44V40H109.429V44H116.572ZM104.072 44V40H96.9287V44H104.072Z" fill="white"/>
<path d="M50.0001 65.9008L1.38379 84.4692L158.304 144.135L179.972 71.2031L155 63.0485V67.2563L175.028 73.7967L167.502 99.1292L145.512 91H133.975L166.36 102.972L155.697 138.865L86.7914 112.665L109.671 91H103.853L82.6405 111.086L12.6165 84.4608L50.0001 70.1826V65.9008Z" fill="white"/>
<path fill-rule="evenodd" clip-rule="evenodd" d="M71.0001 10.0476V6H75.0001V10.0476H71.0001ZM89.0001 6H81.0001V10H89.0001V6ZM95.0001 6V10H103V6H95.0001ZM109 6V10H117V6H109ZM123 6V10H131V6H123ZM137 6V10H145V6H137ZM151 6V10.0476H155V6H151ZM155 16.119H151V24.2143H155V16.119ZM155 30.2857H151V38.381H155V30.2857ZM155 44.4524H151V52.5476H155V44.4524ZM155 58.619H151V66.7143H155V58.619ZM155 72.7857H151V80.881H155V72.7857ZM155 86.9524H151V91H155V86.9524ZM145 91V87H137V91H145ZM131 91V87H123V91H131ZM117 91V87H109V91H117ZM103 91V87H95.0001V91H103ZM89.0001 91V87H81.0001V91H89.0001ZM75.0001 91V86.9524H71.0001V91H75.0001ZM71.0001 80.881H75.0001V72.7857H71.0001V80.881ZM71.0001 66.7143H75.0001V58.619H71.0001V66.7143ZM71.0001 52.5476H75.0001V44.4524H71.0001V52.5476ZM71.0001 38.381H75.0001V30.2857H71.0001V38.381ZM71.0001 24.2143H75.0001V16.119H71.0001V24.2143Z" fill="white"/>
<path d="M54.0001 40H50.0001V44H53.7501V43.6429H54.0001V40Z" fill="white"/>
<path d="M50.0001 91V87H53.7501V87.3571H54.0001V91H50.0001Z" fill="white"/>
<path d="M59.3751 44V40H66.8751V44H59.3751Z" fill="white"/>
<path d="M66.8751 87V91H59.3751V87H66.8751Z" fill="white"/>
<path d="M54.0001 81.8929H50.0001V74.6071H54.0001V81.8929Z" fill="white"/>
<path d="M54.0001 69.1429H50.0001V61.8571H54.0001V69.1429Z" fill="white"/>
<path d="M54.0001 56.3929H50.0001V49.1071H54.0001V56.3929Z" fill="white"/>
<path d="M88.0001 62V66.1429H92.0001V62H88.0001Z" fill="white"/>
<path d="M96.9287 62H104.072V66H96.9287V62Z" fill="white"/>
<path d="M134 66.1429V62H138V66.1429H134Z" fill="white"/>
<path d="M109.429 66V62H116.572V66H109.429Z" fill="white"/>
<path d="M121.929 66V62H129.072V66H121.929Z" fill="white"/>
<path d="M134 72.3571H138V80.6429H134V72.3571Z" fill="white"/>
<path d="M92.0001 80.6429H88.0001V72.3571H92.0001V80.6429Z" fill="white"/>
</g>
<defs>
<clipPath id="clip0_1891_734">
<rect width="200" height="144" fill="white"/>
</clipPath>
</defs>
</svg>
