<svg width="200" height="144" viewBox="0 0 200 144" fill="none" xmlns="http://www.w3.org/2000/svg">
<g clip-path="url(#clip0_1891_711)">
<path fill-rule="evenodd" clip-rule="evenodd" d="M179.972 71.2031L102.422 45.8789L1.38379 84.4692L158.304 144.135L179.972 71.2031ZM69.2791 62.8193L102.527 50.1209L135.614 60.9257L115.55 79.9242L69.2791 62.8193ZM63.6052 64.9864L12.6165 84.4608L82.6405 111.086L112.311 82.9913L63.6052 64.9864ZM86.7914 112.665L155.697 138.865L166.36 102.972L116.495 84.5381L86.7914 112.665ZM167.502 99.1292L175.028 73.7967L139.94 62.3383L119.734 81.4709L167.502 99.1292Z" fill="white"/>
<mask id="path-2-inside-1_1891_711" fill="white">
<path fill-rule="evenodd" clip-rule="evenodd" d="M125.989 18.6444C125.996 18.4305 126 18.2157 126 18C126 8.05887 117.941 0 108 0C98.0589 0 90 8.05887 90 18C90 18.4062 90.0135 18.8093 90.0399 19.2088C80.7181 22.3271 74 31.129 74 41.5C74 54.4787 84.5213 65 97.5 65C101.678 65 105.601 63.9099 109 61.9987C112.399 63.9099 116.322 65 120.5 65C133.479 65 144 54.4787 144 41.5C144 30.4113 136.32 21.1164 125.989 18.6444Z"/>
</mask>
<path fill-rule="evenodd" clip-rule="evenodd" d="M125.989 18.6444C125.996 18.4305 126 18.2157 126 18C126 8.05887 117.941 0 108 0C98.0589 0 90 8.05887 90 18C90 18.4062 90.0135 18.8093 90.0399 19.2088C80.7181 22.3271 74 31.129 74 41.5C74 54.4787 84.5213 65 97.5 65C101.678 65 105.601 63.9099 109 61.9987C112.399 63.9099 116.322 65 120.5 65C133.479 65 144 54.4787 144 41.5C144 30.4113 136.32 21.1164 125.989 18.6444Z" fill="#BA0C2F"/>
<path d="M125.989 18.6444L121.991 18.5038L121.876 21.7733L125.058 22.5346L125.989 18.6444ZM90.0399 19.2088L91.3089 23.0022L94.2354 22.0232L94.0312 18.9442L90.0399 19.2088ZM109 61.9987L110.96 58.512L109 57.4099L107.04 58.512L109 61.9987ZM122 18C122 18.1688 121.997 18.3367 121.991 18.5038L129.986 18.7851C129.995 18.5244 130 18.2626 130 18H122ZM108 4C115.732 4 122 10.268 122 18H130C130 5.84973 120.15 -4 108 -4V4ZM94 18C94 10.268 100.268 4 108 4V-4C95.8497 -4 86 5.84974 86 18H94ZM94.0312 18.9442C94.0105 18.6327 94 18.3179 94 18H86C86 18.4946 86.0164 18.9859 86.0487 19.4735L94.0312 18.9442ZM78 41.5C78 32.9004 83.5692 25.5912 91.3089 23.0022L88.771 15.4154C77.8671 19.063 70 29.3576 70 41.5H78ZM97.5 61C86.7304 61 78 52.2696 78 41.5H70C70 56.6878 82.3122 69 97.5 69V61ZM107.04 58.512C104.223 60.0954 100.973 61 97.5 61V69C102.382 69 106.978 67.7244 110.96 65.4854L107.04 58.512ZM120.5 61C117.027 61 113.777 60.0954 110.96 58.512L107.04 65.4854C111.022 67.7244 115.618 69 120.5 69V61ZM140 41.5C140 52.2696 131.27 61 120.5 61V69C135.688 69 148 56.6878 148 41.5H140ZM125.058 22.5346C133.631 24.5858 140 32.304 140 41.5H148C148 28.5186 139.009 17.6469 126.919 14.7542L125.058 22.5346Z" fill="white" mask="url(#path-2-inside-1_1891_711)"/>
<path d="M109 74.5V51.5M109 35V51.5M121 41L109 51.5" stroke="white" stroke-width="4"/>
</g>
<defs>
<clipPath id="clip0_1891_711">
<rect width="200" height="144" fill="white"/>
</clipPath>
</defs>
</svg>